HIERARCHY
ROOT Hips
{
	OFFSET 0.00000 0.00000 0.00000
	CHANNELS 6 Xposition Yposition Zposition Zrotation Yrotation Xrotation 
	JOINT LHipJoint
	{
		OFFSET 0 0 0
		CHANNELS 3 Zrotation Yrotation Xrotation
		JOINT LeftHip
		{
			OFFSET 1.36337 -1.57426 1.11036
			CHANNELS 3 Zrotation Yrotation Xrotation
			JOINT LeftKnee
			{
				OFFSET 2.38468 -6.55187 0.00000
				CHANNELS 3 Zrotation Yrotation Xrotation
				JOINT LeftAnkle
				{
					OFFSET 2.37166 -6.51609 0.00000
					CHANNELS 3 Zrotation Yrotation Xrotation
					JOINT LeftToe
					{
						OFFSET 0.29078 -0.79891 2.01393
						CHANNELS 3 Zrotation Yrotation Xrotation
						End Site
						{
							OFFSET 0.00000 -0.00000 1.07924
						}
					}
				}
			}
		}
	}
	JOINT RHipJoint
	{
		OFFSET 0 0 0
		CHANNELS 3 Zrotation Yrotation Xrotation
		JOINT RightHip
		{
			OFFSET -1.36349 -1.57426 1.11036
			CHANNELS 3 Zrotation Yrotation Xrotation
			JOINT RightKnee
			{
				OFFSET -2.29562 -6.30717 0.00000
				CHANNELS 3 Zrotation Yrotation Xrotation
				JOINT RightAnkle
				{
					OFFSET -2.40985 -6.62100 0.00000
					CHANNELS 3 Zrotation Yrotation Xrotation
					JOINT RightToe
					{
						OFFSET -0.23197 -0.63733 1.92232
						CHANNELS 3 Zrotation Yrotation Xrotation
						End Site
						{
							OFFSET -0.00000 -0.00000 1.01562
						}
					}
				}
			}
		}
	}
	JOINT lowerback
	{
		OFFSET 0 0 0
		CHANNELS 3 Zrotation Yrotation Xrotation
		JOINT Chest
		{
			OFFSET -0.08565 2.03602 -0.24562
			CHANNELS 3 Zrotation Yrotation Xrotation
			JOINT Chest2
			{
				OFFSET -0.00036 2.05693 0.00216
				CHANNELS 3 Zrotation Yrotation Xrotation
				JOINT lowerneck
				{
					OFFSET 0 0 0
					CHANNELS 3 Zrotation Yrotation Xrotation
					JOINT Neck
					{
						OFFSET -0.03664 1.69515 0.31789
						CHANNELS 3 Zrotation Yrotation Xrotation
						JOINT Head
						{
							OFFSET 0.00932 1.70181 -0.46013
							CHANNELS 3 Zrotation Yrotation Xrotation
							End Site
							{
								OFFSET 0.01243 1.77620 -0.19377
							}
						}
					}
				}
				JOINT LeftCollar
				{
					OFFSET 0 0 0
					CHANNELS 3 Zrotation Yrotation Xrotation
					JOINT LeftShoulder
					{
						OFFSET 3.74344 0.81315 -0.36647
CHANNELS 3 Zrotation Xrotation Yrotation
						JOINT LeftElbow
						{
OFFSET 0 -4.971850 -0.000000
CHANNELS 3 Zrotation Xrotation Yrotation
							JOINT LeftWrist
							{
OFFSET 0 -3.358110 0.000000
CHANNELS 3 Zrotation Xrotation Yrotation
								JOINT lhand
								{
									OFFSET 0 0 0
CHANNELS 3 Zrotation Xrotation Yrotation
									JOINT LFingers
									{
OFFSET 0 -0.622780 0.000000
CHANNELS 3 Zrotation Xrotation Yrotation
										End Site
										{
OFFSET 0 -0.502100 0.000000
										}
									}
								}
								JOINT LThumb
								{
OFFSET 0 0.000000 0.000000
CHANNELS 3 Zrotation Xrotation Yrotation
									End Site
									{
OFFSET 0 -0.509760 0.509760
									}
								}
							}
						}
					}
				}
				JOINT RightCollar
				{
					OFFSET 0 0 0
					CHANNELS 3 Zrotation Yrotation Xrotation
					JOINT RightShoulder
					{
						OFFSET -3.75385 0.50666 -0.06525
CHANNELS 3 Zrotation Xrotation Yrotation
						JOINT RightElbow
						{
OFFSET 0 -4.964930 -0.000000
CHANNELS 3 Zrotation Xrotation Yrotation
							JOINT RightWrist
							{
OFFSET 0 -3.349290 0.000000
CHANNELS 3 Zrotation Xrotation Yrotation
								JOINT rhand
								{
									OFFSET 0 0 0
CHANNELS 3 Zrotation Xrotation Yrotation
									JOINT RFingers
									{
OFFSET 0 -0.638040 0.000000
CHANNELS 3 Zrotation Xrotation Yrotation
										End Site
										{
OFFSET 0 -0.514410 0.000000
										}
									}
								}
								JOINT RThumb
								{
OFFSET 0 0.000000 0.000000
CHANNELS 3 Zrotation Xrotation Yrotation
									End Site
									{
OFFSET 0 -0.522260 0.522260
									}
								}
							}
						}
					}
				}
			}
		}
	}
}
MOTION
Frames: 6
Frame Time: 0.008333333333333333
5.892919 16.966197 -1.802022 64.350260 -85.787245 -62.685322 0.000000 0.000000 0.000000 -14.935274 -4.234991 -4.207976 0.969935 6.269985 17.569906 0.227685 10.304057 -17.814334 0.006534 -0.522994 -1.437249 0.000000 0.000000 0.000000 13.562413 -5.578139 -5.038992 -0.708318 -5.378939 14.992657 -0.115344 -13.384487 -20.340229 -0.059228 -1.570355 4.319560 -3.058309 0.157447 -0.298362 1.274212 0.200815 3.419462 3.036123 -0.032858 3.675312 0.553867 5.309227 -17.528166 1.150263 5.316774 46.129230 1.432657 1.530540 21.793307 0.000000 0.000000 0.000000 -1.473126 -4.694559 -31.354554 13.128271 -21.474876 2.500083 20.327712 -12.352965 11.922387 0.000000 0.000000 0.000000 -7.125000 0.000000 0.000000 -4.783774 17.317799 -3.153982 0.000000 0.000000 0.000000 -4.630035 -3.803524 19.130653 -14.151646 -22.951046 -2.886990 -10.191588 -0.651482 30.080686 0.000000 0.000000 0.000000 7.125000 0.000000 0.000000 23.743098 58.846201 -8.331600
5.902314 16.966066 -1.807835 62.889437 -85.806154 -61.279727 0.000000 0.000000 0.000000 -14.834603 -4.211720 -4.235472 0.973903 6.282439 17.606193 0.230150 10.236533 -17.766151 0.006685 -0.526182 -1.445901 0.000000 0.000000 0.000000 13.657255 -5.668351 -4.912493 -0.690258 -5.311388 14.798886 -0.100906 -13.439149 -20.254478 -0.055963 -1.526662 4.199157 -2.946889 0.126637 -0.338395 1.358165 0.153749 3.499472 3.059249 -0.058383 3.784514 0.471831 5.312135 -17.724454 1.117402 5.400041 46.059796 1.455615 1.548659 21.799014 0.000000 0.000000 0.000000 -1.493407 -4.831250 -31.371374 13.123696 -21.468138 2.498343 20.282742 -12.662068 12.101188 0.000000 0.000000 0.000000 -7.125000 0.000000 0.000000 -4.820034 17.132977 -3.197560 0.000000 0.000000 0.000000 -4.750006 -3.921339 19.270464 -14.159577 -22.962421 -2.890078 -10.037563 -0.761718 30.252728 0.000000 0.000000 0.000000 7.125000 0.000000 0.000000 24.035840 58.967674 -8.512737
5.912845 16.966000 -1.815001 60.755234 -85.989968 -59.239863 0.000000 0.000000 0.000000 -14.546900 -4.089363 -4.197073 0.965745 6.257019 17.532090 0.220579 10.201421 -17.607731 0.012423 -0.719358 -1.976836 0.000000 0.000000 0.000000 13.972567 -5.426092 -4.646238 -0.674344 -5.250899 14.625703 -0.072825 -13.757697 -20.370738 -0.059160 -1.569602 4.317565 -2.619080 0.147912 -0.329914 1.457101 0.168892 3.545903 2.977691 -0.044392 3.826214 0.508732 5.244628 -17.725238 0.880631 5.416450 45.875977 1.324945 1.542565 21.674975 0.000000 0.000000 0.000000 -1.564027 -5.020554 -31.273915 12.943751 -21.204777 2.432905 20.409962 -12.514609 12.229179 0.000000 0.000000 0.000000 -7.125000 0.000000 0.000000 -4.735135 16.986628 -3.156108 0.000000 0.000000 0.000000 -4.790840 -3.999200 19.133100 -14.122650 -22.909818 -2.875646 -9.765576 -0.708390 30.189494 0.000000 0.000000 0.000000 7.125000 0.000000 0.000000 24.263071 58.849809 -8.529757
5.904879 16.968744 -1.817244 61.850359 -85.708519 -60.433869 0.000000 0.000000 0.000000 -14.882886 -4.119424 -3.969231 0.953103 6.217011 17.415345 0.221436 10.232984 -17.654708 0.008110 -0.567023 -1.558144 0.000000 0.000000 0.000000 13.638817 -5.621949 -4.420628 -0.656774 -5.183560 14.432901 -0.082673 -13.686839 -20.383782 -0.054262 -1.502999 4.133988 -2.837735 0.147691 -0.455559 1.409894 0.179057 3.592044 3.053378 -0.048225 3.945204 0.513054 5.148303 -17.853587 0.759143 5.340047 45.768569 1.246359 1.505685 21.643219 0.000000 0.000000 0.000000 -1.626283 -5.003655 -31.037095 12.827597 -21.034025 2.391100 20.034677 -12.066092 12.350943 0.000000 0.000000 0.000000 -7.125000 0.000000 0.000000 -4.999550 16.891526 -3.343869 0.000000 0.000000 0.000000 -4.746109 -4.112901 18.542363 -13.992799 -22.724324 -2.825371 -9.519872 -0.349978 29.847620 0.000000 0.000000 0.000000 7.125000 0.000000 0.000000 24.245006 58.486682 -8.308893
5.904051 16.972017 -1.818959 62.299332 -85.666778 -60.881246 0.000000 0.000000 0.000000 -14.942743 -4.124682 -3.846605 0.936967 6.165765 17.266041 0.229272 10.241484 -17.760371 0.003179 -0.361628 -0.993573 0.000000 0.000000 0.000000 13.581712 -5.641117 -4.313843 -0.639829 -5.117548 14.244067 -0.078463 -13.704685 -20.361685 -0.049186 -1.430847 3.935148 -2.901114 0.142995 -0.560841 1.448974 0.178215 3.488256 3.129721 -0.047844 3.897002 0.209627 4.981415 -17.759773 1.004995 5.079991 45.664590 1.365779 1.394052 21.502117 0.000000 0.000000 0.000000 -1.669999 -4.395313 -30.924582 13.153446 -21.511596 2.509279 19.505513 -11.661259 11.869344 0.000000 0.000000 0.000000 -7.125000 0.000000 0.000000 -5.356499 17.443797 -3.519948 0.000000 0.000000 0.000000 -4.869577 -4.004347 18.617075 -13.827681 -22.487915 -2.761916 -9.590249 -0.494669 29.530357 0.000000 0.000000 0.000000 7.125000 0.000000 0.000000 23.929566 58.215012 -8.034167
5.915860 16.977383 -1.816571 61.437080 -85.733193 -59.956494 0.000000 0.000000 0.000000 -14.856553 -4.171337 -3.921767 0.931295 6.147329 17.212564 0.213169 10.319602 -17.653615 0.005838 -0.494644 -1.359177 0.000000 0.000000 0.000000 13.703190 -5.421463 -4.153486 -0.611346 -5.004285 13.920812 -0.025464 -14.051250 -20.249657 -0.044749 -1.365185 3.754241 -2.773639 0.110284 -0.640313 1.503364 0.131604 3.452462 3.112528 -0.067386 3.908178 0.065585 4.828512 -17.698160 1.013837 4.901679 45.464652 1.350565 1.314631 21.325097 0.000000 0.000000 0.000000 -1.691943 -4.305818 -30.996403 13.160709 -21.522165 2.511933 19.469566 -11.912359 11.858432 0.000000 0.000000 0.000000 -7.125000 0.000000 0.000000 -5.381445 17.458281 -3.534593 0.000000 0.000000 0.000000 -4.907283 -4.010896 18.677449 -13.785876 -22.427797 -2.745883 -9.894353 -0.504196 29.545701 0.000000 0.000000 0.000000 7.125000 0.000000 0.000000 23.633161 58.295240 -7.973381
